<svg width="24" height="25" viewBox="0 0 24 25" fill="none" xmlns="http://www.w3.org/2000/svg">
<path d="M5.19 6.98004C5 6.98004 4.8 6.90004 4.66 6.76004C4.37 6.47004 4.37 5.99004 4.66 5.70004L8.29 2.07004C8.58 1.78004 9.06 1.78004 9.35 2.07004C9.64 2.36004 9.64 2.84004 9.35 3.13004L5.72 6.76004C5.57 6.90004 5.38 6.98004 5.19 6.98004Z" fill="#292D32"/>
<path d="M18.81 6.98004C18.62 6.98004 18.43 6.91004 18.28 6.76004L14.65 3.13004C14.36 2.84004 14.36 2.36004 14.65 2.07004C14.94 1.78004 15.42 1.78004 15.71 2.07004L19.34 5.70004C19.63 5.99004 19.63 6.47004 19.34 6.76004C19.2 6.90004 19 6.98004 18.81 6.98004Z" fill="#292D32"/>
<path d="M20.21 11.2002C20.14 11.2002 20.07 11.2002 20 11.2002H19.77H4C3.3 11.2102 2.5 11.2102 1.92 10.6302C1.46 10.1802 1.25 9.4802 1.25 8.4502C1.25 5.7002 3.26 5.7002 4.22 5.7002H19.78C20.74 5.7002 22.75 5.7002 22.75 8.4502C22.75 9.4902 22.54 10.1802 22.08 10.6302C21.56 11.1502 20.86 11.2002 20.21 11.2002ZM4.22 9.7002H20.01C20.46 9.7102 20.88 9.7102 21.02 9.5702C21.09 9.5002 21.24 9.2602 21.24 8.4502C21.24 7.3202 20.96 7.2002 19.77 7.2002H4.22C3.03 7.2002 2.75 7.3202 2.75 8.4502C2.75 9.2602 2.91 9.5002 2.97 9.5702C3.11 9.7002 3.54 9.7002 3.98 9.7002H4.22Z" fill="#292D32"/>
<path d="M9.76 18.9001C9.35 18.9001 9.01 18.5601 9.01 18.1501V14.6001C9.01 14.1901 9.35 13.8501 9.76 13.8501C10.17 13.8501 10.51 14.1901 10.51 14.6001V18.1501C10.51 18.5701 10.17 18.9001 9.76 18.9001Z" fill="#292D32"/>
<path d="M14.36 18.9001C13.95 18.9001 13.61 18.5601 13.61 18.1501V14.6001C13.61 14.1901 13.95 13.8501 14.36 13.8501C14.77 13.8501 15.11 14.1901 15.11 14.6001V18.1501C15.11 18.5701 14.77 18.9001 14.36 18.9001Z" fill="#292D32"/>
<path d="M14.89 23.3503H8.86C5.28 23.3503 4.48 21.2203 4.17 19.3703L2.76 10.7203C2.69 10.3103 2.97 9.93034 3.38 9.86034C3.79 9.79034 4.17 10.0703 4.24 10.4803L5.65 19.1203C5.94 20.8903 6.54 21.8503 8.86 21.8503H14.89C17.46 21.8503 17.75 20.9503 18.08 19.2103L19.76 10.4603C19.84 10.0503 20.23 9.78034 20.64 9.87034C21.05 9.95034 21.31 10.3403 21.23 10.7503L19.55 19.5003C19.16 21.5303 18.51 23.3503 14.89 23.3503Z" fill="#292D32"/>
</svg>
