<svg width="20" height="21" viewBox="0 0 20 21" fill="none" xmlns="http://www.w3.org/2000/svg">
<path d="M9.26672 15.4076C9.10838 15.4076 8.95005 15.3492 8.82505 15.2242L7.57505 13.9742C7.33338 13.7326 7.33338 13.3326 7.57505 13.0909C7.81672 12.8492 8.21672 12.8492 8.45838 13.0909L9.28338 13.9159L11.55 11.8242C11.8 11.5909 12.2 11.6076 12.4334 11.8576C12.6667 12.1076 12.65 12.5076 12.4 12.7409L9.69172 15.2409C9.57505 15.3492 9.42505 15.4076 9.26672 15.4076Z" fill="#6E7378"/>
<path d="M4.32494 5.51608C4.16661 5.51608 3.99994 5.44941 3.88328 5.33275C3.64161 5.09108 3.64161 4.69108 3.88328 4.44941L6.90828 1.42441C7.14994 1.18275 7.54994 1.18275 7.79161 1.42441C8.03328 1.66608 8.03328 2.06608 7.79161 2.30775L4.76661 5.33275C4.64161 5.44941 4.48328 5.51608 4.32494 5.51608Z" fill="#6E7378"/>
<path d="M15.675 5.51608C15.5167 5.51608 15.3584 5.45775 15.2334 5.33275L12.2083 2.30775C11.9667 2.06608 11.9667 1.66608 12.2083 1.42441C12.45 1.18275 12.85 1.18275 13.0917 1.42441L16.1167 4.44941C16.3584 4.69108 16.3584 5.09108 16.1167 5.33275C16 5.44941 15.8333 5.51608 15.675 5.51608Z" fill="#6E7378"/>
<path d="M16.8416 9.03255C16.7833 9.03255 16.725 9.03255 16.6666 9.03255H16.475H3.33329C2.74996 9.04089 2.08329 9.04088 1.59996 8.55755C1.21663 8.18255 1.04163 7.59922 1.04163 6.74089C1.04163 4.44922 2.71663 4.44922 3.51663 4.44922H16.4833C17.2833 4.44922 18.9583 4.44922 18.9583 6.74089C18.9583 7.60755 18.7833 8.18255 18.4 8.55755C17.9666 8.99088 17.3833 9.03255 16.8416 9.03255ZM3.51663 7.78255H16.675C17.05 7.79089 17.4 7.79089 17.5166 7.67422C17.575 7.61589 17.7 7.41589 17.7 6.74089C17.7 5.79922 17.4666 5.69922 16.475 5.69922H3.51663C2.52496 5.69922 2.29163 5.79922 2.29163 6.74089C2.29163 7.41589 2.42496 7.61589 2.47496 7.67422C2.59163 7.78255 2.94996 7.78255 3.31663 7.78255H3.51663Z" fill="#6E7378"/>
<path d="M12.4083 19.1578H7.38329C4.39996 19.1578 3.73329 17.3828 3.47496 15.8412L2.29996 8.63284C2.24162 8.29117 2.47496 7.9745 2.81662 7.91617C3.14996 7.85784 3.47496 8.09117 3.53329 8.43284L4.70829 15.6328C4.94996 17.1078 5.44996 17.9078 7.38329 17.9078H12.4083C14.55 17.9078 14.7916 17.1578 15.0666 15.7078L16.4666 8.41617C16.5333 8.0745 16.8583 7.8495 17.2 7.9245C17.5416 7.99117 17.7583 8.31617 17.6916 8.65784L16.2916 15.9495C15.9666 17.6412 15.425 19.1578 12.4083 19.1578Z" fill="#6E7378"/>
</svg>
