<svg width="20" height="21" viewBox="0 0 20 21" fill="none" xmlns="http://www.w3.org/2000/svg">
<path d="M5.97487 19.1579C3.99154 19.1579 2.36658 17.7162 2.36658 15.9412V14.2412C2.36658 13.8995 2.64991 13.6162 2.99158 13.6162C3.33324 13.6162 3.61658 13.8995 3.61658 14.2412C3.61658 15.2829 4.62487 16.0662 5.97487 16.0662C7.32487 16.0662 8.33322 15.2829 8.33322 14.2412C8.33322 13.8995 8.61655 13.6162 8.95822 13.6162C9.29989 13.6162 9.58322 13.8995 9.58322 14.2412V15.9412C9.58322 17.7162 7.96654 19.1579 5.97487 19.1579ZM3.8332 16.7579C4.19987 17.4412 5.02487 17.9079 5.97487 17.9079C6.92487 17.9079 7.74988 17.4329 8.11655 16.7579C7.52488 17.1162 6.79154 17.3246 5.97487 17.3246C5.15821 17.3246 4.42487 17.1162 3.8332 16.7579Z" fill="#6E7378"/>
<path d="M5.97487 15.0321C4.60821 15.0321 3.38324 14.4071 2.7749 13.4154C2.50824 12.9821 2.36658 12.4738 2.36658 11.9571C2.36658 11.0821 2.7499 10.2654 3.4499 9.65708C4.7999 8.47374 7.12488 8.47379 8.48322 9.64879C9.18322 10.2655 9.57488 11.0821 9.57488 11.9571C9.57488 12.4738 9.43322 12.9821 9.16656 13.4154C8.56656 14.4071 7.34154 15.0321 5.97487 15.0321ZM5.97487 9.99043C5.32487 9.99043 4.72489 10.2071 4.27489 10.5987C3.84989 10.9654 3.61658 11.4488 3.61658 11.9571C3.61658 12.2488 3.69154 12.5154 3.84154 12.7654C4.22488 13.3988 5.04154 13.7904 5.97487 13.7904C6.90821 13.7904 7.72486 13.3988 8.09986 12.7738C8.24986 12.5321 8.32488 12.2571 8.32488 11.9654C8.32488 11.4571 8.09157 10.9737 7.66657 10.5987C7.2249 10.2071 6.62487 9.99043 5.97487 9.99043Z" fill="#6E7378"/>
<path d="M5.97487 17.3245C3.91654 17.3245 2.36658 15.9995 2.36658 14.2495V11.9579C2.36658 10.1829 3.98321 8.74121 5.97487 8.74121C6.91654 8.74121 7.81656 9.06623 8.49156 9.64957C9.19156 10.2662 9.58322 11.0829 9.58322 11.9579V14.2495C9.58322 15.9995 8.03321 17.3245 5.97487 17.3245ZM5.97487 9.99121C4.67487 9.99121 3.61658 10.8745 3.61658 11.9579V14.2495C3.61658 15.2912 4.62487 16.0745 5.97487 16.0745C7.32487 16.0745 8.33322 15.2912 8.33322 14.2495V11.9579C8.33322 11.4495 8.09991 10.9662 7.67491 10.5912C7.22491 10.2079 6.62487 9.99121 5.97487 9.99121Z" fill="#6E7378"/>
<path d="M15.8666 12.5329C14.6083 12.5329 13.5416 11.5995 13.4416 10.3995C13.375 9.70786 13.625 9.03288 14.125 8.54121C14.5416 8.10788 15.1333 7.86621 15.7583 7.86621H17.5C18.325 7.89121 18.9583 8.54118 18.9583 9.34118V11.0579C18.9583 11.8579 18.325 12.5079 17.525 12.5329H15.8666ZM17.4749 9.11621H15.7666C15.475 9.11621 15.2083 9.22454 15.0166 9.42454C14.775 9.65787 14.6583 9.97452 14.6916 10.2912C14.7333 10.8412 15.2666 11.2829 15.8666 11.2829H17.5C17.6083 11.2829 17.7083 11.1829 17.7083 11.0579V9.34118C17.7083 9.21618 17.6083 9.12454 17.4749 9.11621Z" fill="#6E7378"/>
<path d="M13.3336 17.9079H11.2502C10.9086 17.9079 10.6252 17.6245 10.6252 17.2829C10.6252 16.9412 10.9086 16.6579 11.2502 16.6579H13.3336C15.4836 16.6579 16.8752 15.2662 16.8752 13.1162V12.5329H15.8669C14.6086 12.5329 13.5419 11.5995 13.4419 10.3995C13.3752 9.70787 13.6253 9.03289 14.1253 8.54122C14.5419 8.10789 15.1336 7.86622 15.7586 7.86622H16.8669V7.28288C16.8669 5.33288 15.7253 3.99119 13.8753 3.77453C13.6753 3.74119 13.5002 3.74121 13.3252 3.74121H5.82524C5.62524 3.74121 5.43356 3.75787 5.24189 3.78287C3.40856 4.0162 2.28357 5.34954 2.28357 7.28288V8.94954C2.28357 9.29121 2.00024 9.57454 1.65857 9.57454C1.3169 9.57454 1.03357 9.29121 1.03357 8.94954V7.28288C1.03357 4.71621 2.61693 2.85788 5.07527 2.54955C5.30027 2.51622 5.55857 2.49121 5.82524 2.49121H13.3252C13.5252 2.49121 13.7836 2.49954 14.0502 2.54121C16.5086 2.82454 18.1169 4.69121 18.1169 7.28288V8.49122C18.1169 8.83289 17.8336 9.11622 17.4919 9.11622H15.7586C15.4669 9.11622 15.2003 9.22455 15.0086 9.42455C14.7669 9.65788 14.6502 9.97453 14.6836 10.2912C14.7252 10.8412 15.2586 11.2829 15.8586 11.2829H17.5002C17.8419 11.2829 18.1252 11.5662 18.1252 11.9079V13.1162C18.1252 15.9829 16.2002 17.9079 13.3336 17.9079Z" fill="#6E7378"/>
</svg>
