<svg width="100" height="100" viewBox="0 0 100 100" fill="none" xmlns="http://www.w3.org/2000/svg">
<g opacity="0.75" filter="url(#filter0_d_1_16)">
<circle cx="50" cy="46" r="40" fill="white"/>
</g>
<path fill-rule="evenodd" clip-rule="evenodd" d="M47.5968 38.5968C47.7921 38.4014 48.0571 38.2917 48.3333 38.2917H51.6667C51.9429 38.2917 52.2079 38.4014 52.4032 38.5968C52.5986 38.7921 52.7083 39.0571 52.7083 39.3333V40.375H47.2917V39.3333C47.2917 39.0571 47.4014 38.7921 47.5968 38.5968ZM46.0417 40.375V39.3333C46.0417 38.7255 46.2831 38.1427 46.7129 37.7129C47.1427 37.2831 47.7255 37.0417 48.3333 37.0417H51.6667C52.2745 37.0417 52.8573 37.2831 53.2871 37.7129C53.7169 38.1427 53.9583 38.7255 53.9583 39.3333V40.375H55.8333H57.5C57.8452 40.375 58.125 40.6548 58.125 41C58.125 41.3452 57.8452 41.625 57.5 41.625H56.4583V52.6667C56.4583 53.2745 56.2169 53.8573 55.7871 54.2871C55.3573 54.7169 54.7745 54.9583 54.1667 54.9583H45.8333C45.2255 54.9583 44.6427 54.7169 44.2129 54.2871C43.7831 53.8573 43.5417 53.2745 43.5417 52.6667V41.625H42.5C42.1548 41.625 41.875 41.3452 41.875 41C41.875 40.6548 42.1548 40.375 42.5 40.375H44.1667H46.0417ZM44.7917 41.625V52.6667C44.7917 52.9429 44.9014 53.2079 45.0968 53.4032C45.2921 53.5986 45.5571 53.7083 45.8333 53.7083H54.1667C54.4429 53.7083 54.7079 53.5986 54.9032 53.4032C55.0986 53.2079 55.2083 52.9429 55.2083 52.6667V41.625H44.7917ZM48.3333 44.5417C48.6785 44.5417 48.9583 44.8215 48.9583 45.1667V50.1667C48.9583 50.5118 48.6785 50.7917 48.3333 50.7917C47.9882 50.7917 47.7083 50.5118 47.7083 50.1667V45.1667C47.7083 44.8215 47.9882 44.5417 48.3333 44.5417ZM52.2917 45.1667C52.2917 44.8215 52.0118 44.5417 51.6667 44.5417C51.3215 44.5417 51.0417 44.8215 51.0417 45.1667V50.1667C51.0417 50.5118 51.3215 50.7917 51.6667 50.7917C52.0118 50.7917 52.2917 50.5118 52.2917 50.1667V45.1667Z" fill="#494949"/>
<defs>
<filter id="filter0_d_1_16" x="0" y="0" width="100" height="100" filterUnits="userSpaceOnUse" color-interpolation-filters="sRGB">
<feFlood flood-opacity="0" result="BackgroundImageFix"/>
<feColorMatrix in="SourceAlpha" type="matrix" values="0 0 0 0 0 0 0 0 0 0 0 0 0 0 0 0 0 0 127 0" result="hardAlpha"/>
<feOffset dy="4"/>
<feGaussianBlur stdDeviation="5"/>
<feComposite in2="hardAlpha" operator="out"/>
<feColorMatrix type="matrix" values="0 0 0 0 0 0 0 0 0 0 0 0 0 0 0 0 0 0 0.15 0"/>
<feBlend mode="normal" in2="BackgroundImageFix" result="effect1_dropShadow_1_16"/>
<feBlend mode="normal" in="SourceGraphic" in2="effect1_dropShadow_1_16" result="shape"/>
</filter>
</defs>
</svg>
