<svg width="24" height="25" viewBox="0 0 24 25" fill="none" xmlns="http://www.w3.org/2000/svg">
<path d="M21 7.33007C20.98 7.33007 20.95 7.33007 20.92 7.33007C15.63 6.80007 10.35 6.60007 5.11998 7.13007L3.07998 7.33007C2.65998 7.37007 2.28998 7.07007 2.24998 6.65007C2.20998 6.23007 2.50998 5.87007 2.91998 5.83007L4.95998 5.63007C10.28 5.09007 15.67 5.30007 21.07 5.83007C21.48 5.87007 21.78 6.24007 21.74 6.65007C21.71 7.04007 21.38 7.33007 21 7.33007Z" fill="#8B8E93"/>
<path d="M8.50001 6.31961C8.46001 6.31961 8.42001 6.31961 8.37001 6.30961C7.97001 6.23961 7.69001 5.84961 7.76001 5.44961L7.98001 4.13961C8.14001 3.17961 8.36001 1.84961 10.69 1.84961H13.31C15.65 1.84961 15.87 3.22961 16.02 4.14961L16.24 5.44961C16.31 5.85961 16.03 6.24961 15.63 6.30961C15.22 6.37961 14.83 6.09961 14.77 5.69961L14.55 4.39961C14.41 3.52961 14.38 3.35961 13.32 3.35961H10.7C9.64001 3.35961 9.62001 3.49961 9.47001 4.38961L9.24001 5.68961C9.18001 6.05961 8.86001 6.31961 8.50001 6.31961Z" fill="#8B8E93"/>
<path d="M15.21 23.3492H8.79002C5.30002 23.3492 5.16002 21.4192 5.05002 19.8592L4.40002 9.7892C4.37002 9.3792 4.69002 9.0192 5.10002 8.9892C5.52002 8.9692 5.87002 9.2792 5.90002 9.6892L6.55002 19.7592C6.66002 21.2792 6.70002 21.8492 8.79002 21.8492H15.21C17.31 21.8492 17.35 21.2792 17.45 19.7592L18.1 9.6892C18.13 9.2792 18.49 8.9692 18.9 8.9892C19.31 9.0192 19.63 9.3692 19.6 9.7892L18.95 19.8592C18.84 21.4192 18.7 23.3492 15.21 23.3492Z" fill="#8B8E93"/>
<path d="M13.66 17.8496H10.33C9.92002 17.8496 9.58002 17.5096 9.58002 17.0996C9.58002 16.6896 9.92002 16.3496 10.33 16.3496H13.66C14.07 16.3496 14.41 16.6896 14.41 17.0996C14.41 17.5096 14.07 17.8496 13.66 17.8496Z" fill="#8B8E93"/>
<path d="M14.5 13.8496H9.5C9.09 13.8496 8.75 13.5096 8.75 13.0996C8.75 12.6896 9.09 12.3496 9.5 12.3496H14.5C14.91 12.3496 15.25 12.6896 15.25 13.0996C15.25 13.5096 14.91 13.8496 14.5 13.8496Z" fill="#8B8E93"/>
</svg>
