<svg width="20" height="21" viewBox="0 0 20 21" fill="none" xmlns="http://www.w3.org/2000/svg">
<path d="M7.9002 17.4413C7.48354 17.4413 7.19187 17.2997 7.01687 17.1663C6.68354 16.9247 6.16687 16.2997 6.49187 14.8997L6.96685 12.8497C7.00852 12.6747 6.91686 12.358 6.79186 12.2247L5.13353 10.5663C4.25853 9.69135 4.33353 8.93301 4.45019 8.55801C4.56686 8.18301 4.95019 7.52467 6.16686 7.31634L8.29187 6.96634C8.45021 6.94134 8.70853 6.74968 8.77519 6.60801L9.9502 4.25801C10.5169 3.12467 11.2669 2.95801 11.6669 2.95801C12.0669 2.95801 12.8169 3.12467 13.3835 4.25801L14.5585 6.60801C14.6335 6.74968 14.8835 6.94134 15.0419 6.96634L17.1669 7.31634C18.3835 7.51634 18.7669 8.18301 18.8835 8.55801C19.0002 8.93301 19.0752 9.69135 18.2002 10.5663L16.5419 12.2247C16.4169 12.3497 16.3252 12.6747 16.3669 12.8497L16.8419 14.8997C17.1669 16.308 16.6502 16.9247 16.3168 17.1663C15.9835 17.408 15.2419 17.7163 13.9919 16.9747L12.0002 15.7913C11.8335 15.6913 11.4835 15.6913 11.3169 15.7913L9.3252 16.9747C8.7502 17.3247 8.26687 17.4413 7.9002 17.4413ZM11.6669 4.20801C11.5335 4.20801 11.2919 4.36634 11.0669 4.81634L9.89186 7.16634C9.64186 7.67468 9.0502 8.10801 8.49186 8.19968L6.36687 8.54968C5.89187 8.63301 5.6752 8.80801 5.63354 8.94135C5.59187 9.07468 5.66685 9.34135 6.00852 9.68301L7.66687 11.3413C8.09187 11.7663 8.31687 12.5413 8.18353 13.1247L7.70853 15.1747C7.56686 15.7663 7.65852 16.083 7.75019 16.158C7.84185 16.2247 8.17519 16.2163 8.69186 15.8997L10.6919 14.7163C11.2502 14.383 12.0919 14.383 12.6419 14.7163L14.6335 15.8997C15.1585 16.208 15.4919 16.2247 15.5835 16.158C15.6752 16.0913 15.7669 15.7747 15.6252 15.1747L15.1502 13.1247C15.0169 12.533 15.2335 11.7663 15.6669 11.3413L17.3252 9.68301C17.6669 9.34135 17.7419 9.06635 17.7002 8.94135C17.6585 8.81635 17.4418 8.63301 16.9668 8.54968L14.8419 8.19968C14.2835 8.10801 13.6919 7.67468 13.4419 7.16634L12.2669 4.81634C12.0419 4.36634 11.8002 4.20801 11.6669 4.20801Z" fill="#6E7378"/>
<path d="M6.66663 4.99121H1.66663C1.32496 4.99121 1.04163 4.70788 1.04163 4.36621C1.04163 4.02454 1.32496 3.74121 1.66663 3.74121H6.66663C7.00829 3.74121 7.29163 4.02454 7.29163 4.36621C7.29163 4.70788 7.00829 4.99121 6.66663 4.99121Z" fill="#6E7378"/>
<path d="M4.16663 16.6572H1.66663C1.32496 16.6572 1.04163 16.3739 1.04163 16.0322C1.04163 15.6906 1.32496 15.4072 1.66663 15.4072H4.16663C4.50829 15.4072 4.79163 15.6906 4.79163 16.0322C4.79163 16.3739 4.50829 16.6572 4.16663 16.6572Z" fill="#6E7378"/>
<path d="M2.49996 10.8242H1.66663C1.32496 10.8242 1.04163 10.5409 1.04163 10.1992C1.04163 9.85755 1.32496 9.57422 1.66663 9.57422H2.49996C2.84163 9.57422 3.12496 9.85755 3.12496 10.1992C3.12496 10.5409 2.84163 10.8242 2.49996 10.8242Z" fill="#6E7378"/>
</svg>
