<svg width="25" height="25" viewBox="0 0 25 25" fill="none" xmlns="http://www.w3.org/2000/svg">
<path d="M11.4982 23.3494C11.0182 23.3494 10.5382 23.2294 10.0982 22.9794C9.20816 22.4794 8.67816 21.5893 8.67816 20.5793V15.2294C8.67816 14.7194 8.34816 13.9693 8.03816 13.5793L4.23816 9.58936C3.60816 8.95936 3.11816 7.85938 3.11816 7.04938V4.72937C3.11816 3.11937 4.33816 1.85938 5.88816 1.85938H19.2182C20.7482 1.85938 21.9882 3.09939 21.9882 4.62939V6.84937C21.9882 7.89937 21.3582 9.10934 20.7582 9.69934C20.4682 9.98934 19.9882 9.98934 19.6982 9.69934C19.4082 9.40934 19.4082 8.92934 19.6982 8.63934C20.0682 8.26934 20.4882 7.43937 20.4882 6.84937V4.62939C20.4882 3.92939 19.9182 3.35938 19.2182 3.35938H5.89816C5.18816 3.35938 4.62816 3.95937 4.62816 4.72937V7.04938C4.62816 7.41938 4.92816 8.14937 5.31816 8.53937L9.16816 12.5894C9.67816 13.2194 10.1782 14.2794 10.1782 15.2294V20.5793C10.1782 21.2393 10.6282 21.5594 10.8282 21.6694C11.2582 21.9094 11.7682 21.8994 12.1682 21.6594L13.5682 20.7593C13.9182 20.5393 14.3782 20.6394 14.6082 20.9894C14.8282 21.3394 14.7282 21.7994 14.3782 22.0294L12.9682 22.9394C12.5182 23.2094 12.0082 23.3494 11.4982 23.3494Z" fill="#292D32"/>
<path d="M17.4482 20.8496C15.5282 20.8496 13.7182 19.8296 12.7382 18.1796C12.2182 17.3396 11.9482 16.3596 11.9482 15.3496C11.9482 12.3196 14.4182 9.84961 17.4482 9.84961C20.4782 9.84961 22.9482 12.3196 22.9482 15.3496C22.9482 16.3596 22.6682 17.3396 22.1482 18.1896C21.1782 19.8296 19.3782 20.8496 17.4482 20.8496ZM17.4482 11.3496C15.2382 11.3496 13.4482 13.1396 13.4482 15.3496C13.4482 16.0796 13.6482 16.7896 14.0282 17.3996C14.7482 18.6096 16.0582 19.3496 17.4482 19.3496C18.8682 19.3496 20.1482 18.6296 20.8682 17.4096C21.2482 16.7896 21.4482 16.0796 21.4482 15.3496C21.4482 13.1396 19.6582 11.3496 17.4482 11.3496Z" fill="#5C5C5C"/>
<path d="M18.7184 17.3395C18.5284 17.3395 18.3384 17.2695 18.1884 17.1195L15.6784 14.6095C15.3884 14.3195 15.3884 13.8395 15.6784 13.5495C15.9684 13.2595 16.4484 13.2595 16.7384 13.5495L19.2484 16.0595C19.5384 16.3495 19.5384 16.8295 19.2484 17.1195C19.1084 17.2695 18.9184 17.3395 18.7184 17.3395Z" fill="#5C5C5C"/>
<path d="M16.1884 17.3698C15.9984 17.3698 15.8084 17.2998 15.6584 17.1498C15.3684 16.8598 15.3684 16.3798 15.6584 16.0898L18.1684 13.5798C18.4584 13.2898 18.9384 13.2898 19.2284 13.5798C19.5184 13.8698 19.5184 14.3498 19.2284 14.6398L16.7184 17.1498C16.5684 17.2998 16.3784 17.3698 16.1884 17.3698Z" fill="#5C5C5C"/>
<path d="M11.4982 23.3496C11.0182 23.3496 10.5382 23.2296 10.1082 22.9896C9.21816 22.4896 8.68816 21.5896 8.68816 20.5796V15.2296C8.68816 14.7296 8.35816 13.9696 8.03816 13.5796L4.23816 9.5896C3.60816 8.9396 3.11816 7.84962 3.11816 7.04962V4.7196C3.11816 3.1096 4.33816 1.84961 5.88816 1.84961H19.2282C20.7582 1.84961 21.9982 3.08963 21.9982 4.61963V6.8396C21.9982 7.8896 21.3782 9.06964 20.7782 9.68964L18.9782 11.2796C18.7982 11.4396 18.5382 11.4996 18.3082 11.4496C18.0382 11.3796 17.7482 11.3496 17.4482 11.3496C15.2382 11.3496 13.4482 13.1396 13.4482 15.3496C13.4482 16.0796 13.6482 16.7896 14.0282 17.4096C14.3482 17.9396 14.7782 18.3796 15.2782 18.6896C15.4982 18.8296 15.6382 19.0696 15.6382 19.3296V19.6696C15.6382 20.4596 15.1582 21.5696 14.3582 22.0396L12.9782 22.9296C12.5282 23.2096 12.0082 23.3496 11.4982 23.3496ZM5.89816 3.34961C5.18816 3.34961 4.62816 3.9496 4.62816 4.7196V7.04962C4.62816 7.40962 4.92816 8.14962 5.32816 8.54962L9.17816 12.5996C9.68816 13.2296 10.1982 14.2996 10.1982 15.2396V20.5896C10.1982 21.2496 10.6582 21.5796 10.8482 21.6896C11.2782 21.9296 11.7882 21.9196 12.1782 21.6796L13.5782 20.7796C13.8482 20.6196 14.1182 20.1096 14.1382 19.7496C13.5882 19.3396 13.1082 18.8096 12.7482 18.2096C12.2282 17.3596 11.9482 16.3796 11.9482 15.3796C11.9482 12.3496 14.4182 9.87964 17.4482 9.87964C17.7282 9.87964 18.0082 9.89964 18.2682 9.93964L19.7482 8.62964C20.0882 8.27964 20.5082 7.44962 20.5082 6.85962V4.63959C20.5082 3.93959 19.9382 3.36963 19.2382 3.36963H5.89816V3.34961Z" fill="#5C5C5C"/>
</svg>
