<svg width="38" height="39" viewBox="0 0 38 39" fill="none" xmlns="http://www.w3.org/2000/svg">
<path d="M23.75 36.6208H14.25C5.65252 36.6208 1.97919 32.9474 1.97919 24.3499V14.8499C1.97919 6.25243 5.65252 2.5791 14.25 2.5791H23.75C32.3475 2.5791 36.0209 6.25243 36.0209 14.8499V24.3499C36.0209 32.9474 32.3475 36.6208 23.75 36.6208ZM14.25 4.9541C6.95085 4.9541 4.35419 7.55077 4.35419 14.8499V24.3499C4.35419 31.6491 6.95085 34.2458 14.25 34.2458H23.75C31.0492 34.2458 33.6459 31.6491 33.6459 24.3499V14.8499C33.6459 7.55077 31.0492 4.9541 23.75 4.9541H14.25Z" fill="#6E7278"/>
<path d="M14.25 17.6204C11.8433 17.6204 9.89581 15.6729 9.89581 13.2663C9.89581 10.8596 11.8433 8.91211 14.25 8.91211C16.6566 8.91211 18.6041 10.8596 18.6041 13.2663C18.6041 15.6729 16.6566 17.6204 14.25 17.6204ZM14.25 11.2871C13.1575 11.2871 12.2708 12.1738 12.2708 13.2663C12.2708 14.3588 13.1575 15.2454 14.25 15.2454C15.3425 15.2454 16.2291 14.3588 16.2291 13.2663C16.2291 12.1738 15.3425 11.2871 14.25 11.2871Z" fill="#6E7278"/>
<path d="M4.22748 31.7913C3.84748 31.7913 3.46748 31.6013 3.24582 31.2688C2.88165 30.7305 3.02415 29.9863 3.57832 29.6222L11.3842 24.3813C13.0942 23.2255 15.4533 23.368 17.005 24.6822L17.5275 25.1413C18.3192 25.8222 19.665 25.8222 20.4408 25.1413L27.0275 19.4888C28.7058 18.048 31.35 18.048 33.0442 19.4888L35.625 21.7055C36.1158 22.133 36.1791 22.8772 35.7517 23.3838C35.3242 23.8747 34.58 23.938 34.0733 23.5105L31.4925 21.2938C30.7008 20.613 29.355 20.613 28.5633 21.2938L21.9767 26.9463C20.2983 28.3872 17.6542 28.3872 15.96 26.9463L15.4375 26.4872C14.7092 25.8697 13.5058 25.8063 12.6983 26.3605L4.89248 31.6013C4.68665 31.728 4.44915 31.7913 4.22748 31.7913Z" fill="#6E7278"/>
</svg>
