<?xml version="1.0" standalone="no"?>
<!DOCTYPE svg PUBLIC "-//W3C//DTD SVG 20010904//EN"
 "http://www.w3.org/TR/2001/REC-SVG-20010904/DTD/svg10.dtd">
<svg version="1.0" xmlns="http://www.w3.org/2000/svg"
 width="20" height="20" viewBox="0 0 96.000000 96.000000"
 preserveAspectRatio="xMidYMid meet">

<g transform="translate(0.000000,96.000000) scale(0.100000,-0.100000)"
fill="#6E7378" stroke="none">
<path d="M445 898 c-11 -7 -114 -90 -228 -186 -133 -111 -207 -179 -205 -189
5 -27 35 -40 58 -25 20 12 20 10 20 -177 0 -104 4 -201 10 -215 16 -43 57 -56
173 -56 143 0 141 -2 147 152 l5 123 55 0 55 0 5 -123 c6 -154 4 -152 146
-152 180 0 184 6 184 270 0 183 1 190 19 179 22 -14 49 -6 58 18 5 12 -6 27
-35 54 l-42 37 0 89 c0 99 -7 113 -55 113 -41 0 -55 -16 -55 -62 0 -21 -3 -38
-7 -38 -5 0 -58 42 -120 94 -135 113 -146 118 -188 94z m201 -195 l153 -128 0
-212 c1 -255 5 -245 -108 -241 l-76 3 -3 120 c-3 152 -5 155 -132 155 -127 0
-129 -3 -132 -155 l-3 -120 -76 -3 c-113 -4 -109 -14 -108 241 l0 212 152 127
c84 70 158 127 166 128 7 0 82 -57 167 -127z"/>
</g>
</svg>
