<svg width="20" height="21" viewBox="0 0 20 21" fill="none" xmlns="http://www.w3.org/2000/svg">
<path d="M14.5333 13.4086C14.375 13.4086 14.2167 13.3503 14.0917 13.2253C13.85 12.9836 13.85 12.5836 14.0917 12.342L15.7833 10.6503L14.0917 8.95863C13.85 8.71696 13.85 8.31696 14.0917 8.07529C14.3333 7.83363 14.7333 7.83363 14.975 8.07529L17.1083 10.2086C17.35 10.4503 17.35 10.8503 17.1083 11.092L14.975 13.2253C14.85 13.3503 14.6917 13.4086 14.5333 13.4086Z" fill="#6E7378"/>
<path d="M16.6083 11.2749H8.1333C7.79163 11.2749 7.5083 10.9916 7.5083 10.6499C7.5083 10.3082 7.79163 10.0249 8.1333 10.0249H16.6083C16.95 10.0249 17.2333 10.3082 17.2333 10.6499C17.2333 10.9916 16.95 11.2749 16.6083 11.2749Z" fill="#6E7378"/>
<path d="M9.79997 17.8919C5.5083 17.8919 2.5083 14.8919 2.5083 10.6003C2.5083 6.30859 5.5083 3.30859 9.79997 3.30859C10.1416 3.30859 10.425 3.59193 10.425 3.93359C10.425 4.27526 10.1416 4.55859 9.79997 4.55859C6.24163 4.55859 3.7583 7.04193 3.7583 10.6003C3.7583 14.1586 6.24163 16.6419 9.79997 16.6419C10.1416 16.6419 10.425 16.9253 10.425 17.2669C10.425 17.6086 10.1416 17.8919 9.79997 17.8919Z" fill="#6E7378"/>
</svg>
