<svg width="20" height="21" viewBox="0 0 20 21" fill="none" xmlns="http://www.w3.org/2000/svg">
<path d="M9.99996 19.2079C9.42496 19.2079 8.88329 18.9162 8.49996 18.4079L7.24996 16.7412C7.22496 16.7079 7.12496 16.6579 7.07496 16.6579H6.66663C3.19163 16.6579 1.04163 15.7162 1.04163 11.0329V6.86621C1.04163 3.18288 2.98329 1.24121 6.66663 1.24121H11.6666C12.0083 1.24121 12.2916 1.52454 12.2916 1.86621C12.2916 2.20788 12.0083 2.49121 11.6666 2.49121H6.66663C3.68329 2.49121 2.29163 3.88288 2.29163 6.86621V11.0329C2.29163 14.7995 3.58329 15.4079 6.66663 15.4079H7.08329C7.50829 15.4079 7.99163 15.6495 8.24996 15.9912L9.49996 17.6579C9.79163 18.0412 10.2083 18.0412 10.5 17.6579L11.75 15.9912C12.025 15.6245 12.4583 15.4079 12.9166 15.4079H13.3333C16.3166 15.4079 17.7083 14.0162 17.7083 11.0329V8.53288C17.7083 8.19121 17.9916 7.90788 18.3333 7.90788C18.675 7.90788 18.9583 8.19121 18.9583 8.53288V11.0329C18.9583 14.7162 17.0166 16.6579 13.3333 16.6579H12.9166C12.85 16.6579 12.7916 16.6912 12.75 16.7412L11.5 18.4079C11.1166 18.9162 10.575 19.2079 9.99996 19.2079Z" fill="#6E7378"/>
<path d="M9.99996 10.1989C9.53329 10.1989 9.16663 9.82389 9.16663 9.36556C9.16663 8.90723 9.54163 8.53223 9.99996 8.53223C10.4583 8.53223 10.8333 8.90723 10.8333 9.36556C10.8333 9.82389 10.4666 10.1989 9.99996 10.1989Z" fill="#6E7378"/>
<path d="M13.3333 10.1989C12.8667 10.1989 12.5 9.82389 12.5 9.36556C12.5 8.90723 12.875 8.53223 13.3333 8.53223C13.7917 8.53223 14.1667 8.90723 14.1667 9.36556C14.1667 9.82389 13.8 10.1989 13.3333 10.1989Z" fill="#6E7378"/>
<path d="M6.66671 10.1989C6.20004 10.1989 5.83337 9.82389 5.83337 9.36556C5.83337 8.90723 6.20837 8.53223 6.66671 8.53223C7.12504 8.53223 7.50004 8.90723 7.50004 9.36556C7.50004 9.82389 7.13337 10.1989 6.66671 10.1989Z" fill="#6E7378"/>
<path d="M16.25 6.65788C14.7583 6.65788 13.5416 5.44121 13.5416 3.94954C13.5416 2.45788 14.7583 1.24121 16.25 1.24121C17.7416 1.24121 18.9583 2.45788 18.9583 3.94954C18.9583 5.44121 17.7416 6.65788 16.25 6.65788ZM16.25 2.49121C15.45 2.49121 14.7916 3.14954 14.7916 3.94954C14.7916 4.74954 15.45 5.40788 16.25 5.40788C17.05 5.40788 17.7083 4.74954 17.7083 3.94954C17.7083 3.14954 17.05 2.49121 16.25 2.49121Z" fill="#6E7378"/>
</svg>
