<svg width="72" height="72" viewBox="0 0 72 72" fill="none" xmlns="http://www.w3.org/2000/svg">
<rect width="72" height="72" rx="36" fill="#F9FAFB"/>
<path d="M30.325 31.3169C30.1667 31.3169 30 31.2502 29.8833 31.1335C29.6417 30.8919 29.6417 30.4919 29.8833 30.2502L32.9083 27.2252C33.15 26.9835 33.55 26.9835 33.7917 27.2252C34.0333 27.4669 34.0333 27.8669 33.7917 28.1085L30.7667 31.1335C30.6417 31.2502 30.4833 31.3169 30.325 31.3169Z" fill="#6E7378"/>
<path d="M41.675 31.3169C41.5167 31.3169 41.3584 31.2585 41.2334 31.1335L38.2083 28.1085C37.9667 27.8669 37.9667 27.4669 38.2083 27.2252C38.45 26.9835 38.85 26.9835 39.0917 27.2252L42.1167 30.2502C42.3584 30.4919 42.3584 30.8919 42.1167 31.1335C42 31.2502 41.8333 31.3169 41.675 31.3169Z" fill="#6E7378"/>
<path d="M42.8417 34.8333C42.7834 34.8333 42.725 34.8333 42.6667 34.8333H42.475H29.3334C28.75 34.8417 28.0834 34.8417 27.6 34.3583C27.2167 33.9833 27.0417 33.4 27.0417 32.5417C27.0417 30.25 28.7167 30.25 29.5167 30.25H42.4834C43.2834 30.25 44.9584 30.25 44.9584 32.5417C44.9584 33.4083 44.7834 33.9833 44.4 34.3583C43.9667 34.7917 43.3834 34.8333 42.8417 34.8333ZM29.5167 33.5833H42.675C43.05 33.5917 43.4 33.5917 43.5167 33.475C43.575 33.4167 43.7 33.2167 43.7 32.5417C43.7 31.6 43.4667 31.5 42.475 31.5H29.5167C28.525 31.5 28.2917 31.6 28.2917 32.5417C28.2917 33.2167 28.425 33.4167 28.475 33.475C28.5917 33.5833 28.95 33.5833 29.3167 33.5833H29.5167Z" fill="#6E7378"/>
<path d="M38.4084 44.9586H33.3834C30.4 44.9586 29.7334 43.1836 29.475 41.642L28.3 34.4336C28.2417 34.092 28.475 33.7753 28.8167 33.717C29.15 33.6586 29.475 33.892 29.5334 34.2336L30.7084 41.4336C30.95 42.9086 31.45 43.7086 33.3834 43.7086H38.4084C40.55 43.7086 40.7917 42.9586 41.0667 41.5086L42.4667 34.2169C42.5334 33.8753 42.8584 33.6503 43.2 33.7253C43.5417 33.792 43.7584 34.1169 43.6917 34.4586L42.2917 41.7503C41.9667 43.4419 41.425 44.9586 38.4084 44.9586Z" fill="#6E7378"/>
</svg>
