<svg width="20" height="21" viewBox="0 0 20 21" fill="none" xmlns="http://www.w3.org/2000/svg">
<path d="M9.99996 14.1579C9.66663 14.1579 9.33329 14.1329 9.01663 14.0745C7.24996 13.8162 5.64163 12.7995 4.62496 11.2912C3.91663 10.2245 3.54163 8.98288 3.54163 7.69954C3.54163 4.14121 6.44163 1.24121 9.99996 1.24121C13.5583 1.24121 16.4583 4.14121 16.4583 7.69954C16.4583 8.98288 16.0833 10.2245 15.375 11.2912C14.35 12.8079 12.7416 13.8162 10.9583 14.0829C10.6666 14.1329 10.3333 14.1579 9.99996 14.1579ZM9.99996 2.49121C7.12496 2.49121 4.79163 4.82454 4.79163 7.69954C4.79163 8.74121 5.09163 9.74121 5.65829 10.5912C6.48329 11.8079 7.77496 12.6245 9.20829 12.8329C9.74163 12.9245 10.2666 12.9245 10.7583 12.8329C12.2166 12.6245 13.5083 11.7995 14.3333 10.5829C14.9 9.73287 15.2 8.73287 15.2 7.6912C15.2083 4.82454 12.875 2.49121 9.99996 2.49121Z" fill="#6E7378"/>
<path d="M5.39147 19.0239C5.27481 19.0239 5.16647 19.0072 5.04981 18.9822C4.50814 18.8572 4.09147 18.4405 3.96647 17.8989L3.67481 16.6739C3.65814 16.5989 3.59981 16.5405 3.51647 16.5155L2.14147 16.1905C1.62481 16.0655 1.21647 15.6822 1.07481 15.1739C0.933141 14.6655 1.07481 14.1155 1.44981 13.7405L4.69981 10.4905C4.83314 10.3572 5.01647 10.2905 5.19981 10.3072C5.38314 10.3239 5.54981 10.4239 5.65814 10.5822C6.48314 11.7989 7.77481 12.6239 9.21647 12.8322C9.74981 12.9239 10.2748 12.9239 10.7665 12.8322C12.2248 12.6239 13.5165 11.7989 14.3415 10.5822C14.4415 10.4239 14.6165 10.3239 14.7998 10.3072C14.9831 10.2905 15.1665 10.3572 15.2998 10.4905L18.5498 13.7405C18.9248 14.1155 19.0665 14.6655 18.9248 15.1739C18.7831 15.6822 18.3665 16.0739 17.8581 16.1905L16.4831 16.5155C16.4081 16.5322 16.3498 16.5905 16.3248 16.6739L16.0331 17.8989C15.9081 18.4405 15.4915 18.8572 14.9498 18.9822C14.4081 19.1155 13.8498 18.9239 13.4998 18.4989L9.99981 14.4739L6.49981 18.5072C6.21647 18.8405 5.81647 19.0239 5.39147 19.0239ZM5.07481 11.8905L2.33314 14.6322C2.25814 14.7072 2.26647 14.7905 2.28314 14.8405C2.29147 14.8822 2.33314 14.9655 2.43314 14.9822L3.80814 15.3072C4.34981 15.4322 4.76647 15.8489 4.89147 16.3905L5.18314 17.6155C5.20814 17.7239 5.29147 17.7572 5.34147 17.7739C5.39147 17.7822 5.47481 17.7905 5.54981 17.7072L8.74147 14.0322C7.32481 13.7572 6.02481 12.9989 5.07481 11.8905ZM11.2581 14.0239L14.4498 17.6905C14.5248 17.7822 14.6165 17.7822 14.6665 17.7655C14.7165 17.7572 14.7915 17.7155 14.8248 17.6072L15.1165 16.3822C15.2415 15.8405 15.6581 15.4239 16.1998 15.2989L17.5748 14.9739C17.6748 14.9489 17.7165 14.8739 17.7248 14.8322C17.7415 14.7905 17.7498 14.6989 17.6748 14.6239L14.9331 11.8822C13.9748 12.9905 12.6831 13.7489 11.2581 14.0239Z" fill="#6E7378"/>
<path d="M11.5752 10.9411C11.3585 10.9411 11.1002 10.8828 10.7918 10.6994L10.0002 10.2244L9.20849 10.6911C8.48349 11.1244 8.00849 10.8744 7.83349 10.7494C7.65849 10.6244 7.28349 10.2494 7.47516 9.42443L7.67516 8.5661L7.00849 7.94941C6.64183 7.58275 6.50849 7.14109 6.63349 6.74109C6.75849 6.34109 7.12516 6.05775 7.64183 5.97442L8.53349 5.82442L8.95849 4.89109C9.20016 4.41609 9.57516 4.14941 10.0002 4.14941C10.4252 4.14941 10.8085 4.42443 11.0418 4.89943L11.5335 5.88276L12.3585 5.98276C12.8668 6.06609 13.2335 6.34941 13.3668 6.74941C13.4918 7.14941 13.3585 7.59109 12.9918 7.95775L12.3002 8.64943L12.5168 9.42443C12.7085 10.2494 12.3335 10.6244 12.1585 10.7494C12.0668 10.8244 11.8668 10.9411 11.5752 10.9411ZM8.00849 7.1911L8.58349 7.76608C8.85016 8.03274 8.98349 8.48276 8.90016 8.84943L8.74182 9.51608L9.40849 9.12441C9.76682 8.91608 10.2502 8.91608 10.6002 9.12441L11.2668 9.51608L11.1168 8.84943C11.0335 8.47443 11.1585 8.03274 11.4252 7.76608L12.0002 7.1911L11.2752 7.06608C10.9252 7.00775 10.5752 6.74943 10.4168 6.43276L10.0002 5.61609L9.58349 6.44942C9.43349 6.75776 9.08349 7.02443 8.73349 7.08276L8.00849 7.1911Z" fill="#6E7378"/>
</svg>
