<svg width="20" height="21" viewBox="0 0 20 21"  xmlns="http://www.w3.org/2000/svg" fill="#6E7378">
<path d="M10.1 11.8753C10.0834 11.8753 10.0584 11.8753 10.0417 11.8753C10.0167 11.8753 9.98336 11.8753 9.95836 11.8753C8.06669 11.817 6.65002 10.342 6.65002 8.52533C6.65002 6.67533 8.15836 5.16699 10.0084 5.16699C11.8584 5.16699 13.3667 6.67533 13.3667 8.52533C13.3584 10.3503 11.9334 11.817 10.125 11.8753C10.1084 11.8753 10.1084 11.8753 10.1 11.8753ZM10 6.40866C8.83336 6.40866 7.89169 7.35866 7.89169 8.51699C7.89169 9.65866 8.78336 10.5837 9.91669 10.6253C9.94169 10.617 10.025 10.617 10.1084 10.6253C11.225 10.567 12.1 9.65033 12.1084 8.51699C12.1084 7.35866 11.1667 6.40866 10 6.40866Z" />
<path d="M10 19.5582C7.75836 19.5582 5.61669 18.7249 3.95836 17.2082C3.80836 17.0749 3.74169 16.8749 3.75836 16.6832C3.86669 15.6915 4.48336 14.7665 5.50836 14.0832C7.99169 12.4332 12.0167 12.4332 14.4917 14.0832C15.5167 14.7749 16.1334 15.6915 16.2417 16.6832C16.2667 16.8832 16.1917 17.0749 16.0417 17.2082C14.3834 18.7249 12.2417 19.5582 10 19.5582ZM5.06669 16.5165C6.45003 17.6749 8.19169 18.3082 10 18.3082C11.8084 18.3082 13.55 17.6749 14.9334 16.5165C14.7834 16.0082 14.3834 15.5165 13.7917 15.1165C11.7417 13.7499 8.26669 13.7499 6.20003 15.1165C5.60836 15.5165 5.21669 16.0082 5.06669 16.5165Z"/>
<path d="M9.99996 19.5583C5.05829 19.5583 1.04163 15.5416 1.04163 10.5999C1.04163 5.65827 5.05829 1.6416 9.99996 1.6416C14.9416 1.6416 18.9583 5.65827 18.9583 10.5999C18.9583 15.5416 14.9416 19.5583 9.99996 19.5583ZM9.99996 2.8916C5.74996 2.8916 2.29163 6.34994 2.29163 10.5999C2.29163 14.8499 5.74996 18.3083 9.99996 18.3083C14.25 18.3083 17.7083 14.8499 17.7083 10.5999C17.7083 6.34994 14.25 2.8916 9.99996 2.8916Z"/>
</svg>
