<svg width="22" height="21" viewBox="0 0 22 21" fill="none" xmlns="http://www.w3.org/2000/svg">
<path d="M11 20.2492C10.69 20.2492 10.39 20.2092 10.14 20.1192C6.32 18.8092 0.25 14.1592 0.25 7.28922C0.25 3.78922 3.08 0.949219 6.56 0.949219C8.25 0.949219 9.83 1.60922 11 2.78922C12.17 1.60922 13.75 0.949219 15.44 0.949219C18.92 0.949219 21.75 3.79922 21.75 7.28922C21.75 14.1692 15.68 18.8092 11.86 20.1192C11.61 20.2092 11.31 20.2492 11 20.2492ZM6.56 2.44922C3.91 2.44922 1.75 4.61922 1.75 7.28922C1.75 14.1192 8.32 17.9192 10.63 18.7092C10.81 18.7692 11.2 18.7692 11.38 18.7092C13.68 17.9192 20.26 14.1292 20.26 7.28922C20.26 4.61922 18.1 2.44922 15.45 2.44922C13.93 2.44922 12.52 3.15922 11.61 4.38922C11.33 4.76922 10.69 4.76922 10.41 4.38922C9.48 3.14922 8.08 2.44922 6.56 2.44922Z" fill="#8B8E93"/>
</svg>
