<svg width="17" height="18" viewBox="0 0 17 18" fill="none" xmlns="http://www.w3.org/2000/svg">
<path d="M8.14582 15.5062C4.14374 15.5062 0.885406 12.2479 0.885406 8.24577C0.885406 4.24368 4.14374 0.985352 8.14582 0.985352C12.1479 0.985352 15.4062 4.24368 15.4062 8.24577C15.4062 12.2479 12.1479 15.5062 8.14582 15.5062ZM8.14582 2.04785C4.72457 2.04785 1.94791 4.8316 1.94791 8.24577C1.94791 11.6599 4.72457 14.4437 8.14582 14.4437C11.5671 14.4437 14.3437 11.6599 14.3437 8.24577C14.3437 4.8316 11.5671 2.04785 8.14582 2.04785Z" fill="#494949"/>
<path d="M15.5833 16.2147C15.4487 16.2147 15.3142 16.1651 15.2079 16.0589L13.7912 14.6422C13.5858 14.4368 13.5858 14.0968 13.7912 13.8914C13.9967 13.686 14.3367 13.686 14.5421 13.8914L15.9587 15.308C16.1642 15.5135 16.1642 15.8535 15.9587 16.0589C15.8525 16.1651 15.7179 16.2147 15.5833 16.2147Z" fill="#494949"/>
</svg>
