<svg width="20" height="21" viewBox="0 0 20 21" fill="none" xmlns="http://www.w3.org/2000/svg">
<path d="M10 19.5665C9.09171 19.5665 8.19171 19.2998 7.48337 18.7748L3.90004 16.0998C2.95004 15.3915 2.20837 13.9081 2.20837 12.7331V6.53314C2.20837 5.2498 3.15004 3.88314 4.35837 3.43314L8.51671 1.8748C9.34171 1.56647 10.6417 1.56647 11.4667 1.8748L15.625 3.43314C16.8334 3.88314 17.775 5.2498 17.775 6.53314V12.7248C17.775 13.9081 17.0334 15.3831 16.0834 16.0915L12.5 18.7665C11.8084 19.2998 10.9084 19.5665 10 19.5665ZM8.95837 3.0498L4.80004 4.60814C4.09171 4.8748 3.46671 5.7748 3.46671 6.54147V12.7331C3.46671 13.5248 4.02504 14.6331 4.65004 15.0998L8.23337 17.7748C9.19171 18.4915 10.8084 18.4915 11.775 17.7748L15.3584 15.0998C15.9917 14.6248 16.5417 13.5248 16.5417 12.7331V6.53314C16.5417 5.7748 15.9167 4.8748 15.2084 4.5998L11.05 3.04147C10.4834 2.84147 9.51671 2.84147 8.95837 3.0498Z" fill="#6E7278"/>
<path d="M8.88328 12.4582C8.72495 12.4582 8.56662 12.3999 8.44162 12.2749L7.09995 10.9332C6.85828 10.6915 6.85828 10.2915 7.09995 10.0499C7.34162 9.8082 7.74162 9.8082 7.98328 10.0499L8.88328 10.9499L12.025 7.8082C12.2666 7.56654 12.6666 7.56654 12.9083 7.8082C13.15 8.04987 13.15 8.44987 12.9083 8.69154L9.32495 12.2749C9.19995 12.3999 9.04162 12.4582 8.88328 12.4582Z" fill="#6E7278"/>
</svg>
