<svg width="20" height="21" viewBox="0 0 20 21" fill="none" xmlns="http://www.w3.org/2000/svg">
<path d="M14.7834 19.1572H5.21671C3.14171 19.1572 1.45837 17.4739 1.45837 15.3989V9.79057C1.45837 7.71557 3.14171 6.03223 5.21671 6.03223H14.7834C16.8584 6.03223 18.5417 7.71557 18.5417 9.79057V10.9906C18.5417 11.3322 18.2584 11.6156 17.9167 11.6156H16.2334C15.9417 11.6156 15.675 11.7239 15.4834 11.9239L15.475 11.9322C15.2417 12.1572 15.1334 12.4655 15.1584 12.7822C15.2084 13.3322 15.7334 13.7739 16.3334 13.7739H17.9167C18.2584 13.7739 18.5417 14.0572 18.5417 14.3989V15.3905C18.5417 17.4739 16.8584 19.1572 14.7834 19.1572ZM5.21671 7.28223C3.83337 7.28223 2.70837 8.40723 2.70837 9.79057V15.3989C2.70837 16.7822 3.83337 17.9072 5.21671 17.9072H14.7834C16.1667 17.9072 17.2917 16.7822 17.2917 15.3989V15.0322H16.3334C15.075 15.0322 14.0084 14.0989 13.9084 12.8989C13.8417 12.2156 14.0917 11.5406 14.5917 11.0489C15.025 10.6072 15.6084 10.3656 16.2334 10.3656H17.2917V9.79057C17.2917 8.40723 16.1667 7.28223 14.7834 7.28223H5.21671Z" fill="#6E7378"/>
<path d="M2.08337 11.1662C1.74171 11.1662 1.45837 10.8829 1.45837 10.5412V6.73293C1.45837 5.49126 2.24171 4.36622 3.40004 3.92455L10.0167 1.42455C10.7 1.16622 11.4584 1.25792 12.05 1.67459C12.65 2.09126 13 2.76625 13 3.49125V6.65791C13 6.99957 12.7167 7.28291 12.375 7.28291C12.0334 7.28291 11.75 6.99957 11.75 6.65791V3.49125C11.75 3.17458 11.6 2.88291 11.3334 2.69957C11.0667 2.51624 10.75 2.47457 10.45 2.59124L3.83337 5.09124C3.15837 5.34957 2.70004 6.00793 2.70004 6.73293V10.5412C2.70837 10.8912 2.42504 11.1662 2.08337 11.1662Z" fill="#6E7378"/>
<path d="M16.3333 15.0329C15.075 15.0329 14.0083 14.0995 13.9083 12.8995C13.8416 12.2079 14.0916 11.5329 14.5916 11.0412C15.0166 10.6079 15.6 10.3662 16.225 10.3662H17.9583C18.7833 10.3912 19.4166 11.0412 19.4166 11.8412V13.5579C19.4166 14.3579 18.7833 15.0079 17.9833 15.0329H16.3333ZM17.9416 11.6162H16.2333C15.9416 11.6162 15.675 11.7245 15.4833 11.9245C15.2416 12.1579 15.125 12.4745 15.1583 12.7912C15.2083 13.3412 15.7333 13.7829 16.3333 13.7829H17.9666C18.075 13.7829 18.175 13.6829 18.175 13.5579V11.8412C18.175 11.7162 18.075 11.6245 17.9416 11.6162Z" fill="#6E7378"/>
<path d="M11.6667 10.8242H5.83337C5.49171 10.8242 5.20837 10.5409 5.20837 10.1992C5.20837 9.85755 5.49171 9.57422 5.83337 9.57422H11.6667C12.0084 9.57422 12.2917 9.85755 12.2917 10.1992C12.2917 10.5409 12.0084 10.8242 11.6667 10.8242Z" fill="#6E7378"/>
</svg>
