<svg width="20" height="21" viewBox="0 0 20 21" fill="none" xmlns="http://www.w3.org/2000/svg">
<path d="M16.475 9.57454H13.1083C11.4333 9.57454 10.625 8.75788 10.625 7.09121V3.72454C10.625 2.04954 11.4417 1.24121 13.1083 1.24121H16.475C18.15 1.24121 18.9583 2.05788 18.9583 3.72454V7.09121C18.9583 8.75788 18.1417 9.57454 16.475 9.57454ZM13.1083 2.49121C12.125 2.49121 11.875 2.74121 11.875 3.72454V7.09121C11.875 8.07454 12.125 8.32454 13.1083 8.32454H16.475C17.4583 8.32454 17.7083 8.07454 17.7083 7.09121V3.72454C17.7083 2.74121 17.4583 2.49121 16.475 2.49121H13.1083Z" fill="#6E7378"/>
<path d="M6.89163 9.57454H3.52496C1.84996 9.57454 1.04163 8.83288 1.04163 7.29954V3.51621C1.04163 1.98288 1.85829 1.24121 3.52496 1.24121H6.89163C8.56663 1.24121 9.37496 1.98288 9.37496 3.51621V7.29121C9.37496 8.83288 8.55829 9.57454 6.89163 9.57454ZM3.52496 2.49121C2.40829 2.49121 2.29163 2.80788 2.29163 3.51621V7.29121C2.29163 8.00788 2.40829 8.31621 3.52496 8.31621H6.89163C8.00829 8.31621 8.12496 7.99954 8.12496 7.29121V3.51621C8.12496 2.79954 8.00829 2.49121 6.89163 2.49121H3.52496Z" fill="#6E7378"/>
<path d="M6.89163 19.1576H3.52496C1.84996 19.1576 1.04163 18.3409 1.04163 16.6742V13.3076C1.04163 11.6326 1.85829 10.8242 3.52496 10.8242H6.89163C8.56663 10.8242 9.37496 11.6409 9.37496 13.3076V16.6742C9.37496 18.3409 8.55829 19.1576 6.89163 19.1576ZM3.52496 12.0742C2.54163 12.0742 2.29163 12.3242 2.29163 13.3076V16.6742C2.29163 17.6576 2.54163 17.9076 3.52496 17.9076H6.89163C7.87496 17.9076 8.12496 17.6576 8.12496 16.6742V13.3076C8.12496 12.3242 7.87496 12.0742 6.89163 12.0742H3.52496Z" fill="#6E7378"/>
<path d="M17.0834 15.4072H12.0834C11.7417 15.4072 11.4584 15.1239 11.4584 14.7822C11.4584 14.4406 11.7417 14.1572 12.0834 14.1572H17.0834C17.425 14.1572 17.7084 14.4406 17.7084 14.7822C17.7084 15.1239 17.425 15.4072 17.0834 15.4072Z" fill="#6E7378"/>
<path d="M14.5834 17.9072C14.2417 17.9072 13.9584 17.6239 13.9584 17.2822V12.2822C13.9584 11.9406 14.2417 11.6572 14.5834 11.6572C14.925 11.6572 15.2084 11.9406 15.2084 12.2822V17.2822C15.2084 17.6239 14.925 17.9072 14.5834 17.9072Z" fill="#6E7378"/>
</svg>
